# xmcd CD database file
#
# Track frame offsets:
#	150
#	19706
#	33564
#	56425
#	78475
#	97447
#
# Disc length: 1564 seconds
#
# Revision: 0
# Processed by: cddbd v1.5.1PL2 Copyright (c) Steve Scherf et al.
# Submitted via: CDex 1.51
#
DISCID=49061a06
DTITLE=ACO - mask
DYEAR=2006
DGENRE=Electronic
TTITLE0=ya-yo!
TTITLE1=guilty
TTITLE2=i know what boys like
TTITLE3=リクノリトウ
TTITLE4=cover grrrl
TTITLE5=不安なの　New ver
EXTD=YEAR: 2006.2.22
EXTT0=
EXTT1=
EXTT2=
EXTT3=
EXTT4=
EXTT5=
PLAYORDER=
